<?xml version="1.0" encoding="utf-8"?>
<!-- Generator: Adobe Illustrator 24.0.1, SVG Export Plug-In . SVG Version: 6.00 Build 0)  -->
<svg version="1.1" id="Capa_1" xmlns="http://www.w3.org/2000/svg" xmlns:xlink="http://www.w3.org/1999/xlink" x="0px" y="0px"
	 viewBox="0 0 4881.8 1696.9" style="enable-background:new 0 0 4881.8 1696.9;" xml:space="preserve">
<path d="M0,0v1696.9h4881.8V0H0z M1246.9,1160.6h-137V857.1l-139.3,279.4H854.2L704.1,847.3v313.2H567.9V536.8h131.3l213,433.4
	l202.1-433.4h132.6V1160.6z M2089.6,1160.5h-129.1c0,0-172.5-247.4-264.2-378.2v378.2h-137v-623h130c0,0,175.2,248.3,265.1,377.3
	V537.6h135.2V1160.5z M2743.3,1160.6l-173.2-214.5c0,0-25.8,30.2-36.5,40.9v173.6h-137V537.7h137v263.4
	c69.4-86.3,214.2-263.4,214.2-263.4H2916l-256.9,316.8l260.3,306.9L2743.3,1160.6z M3581.9,1160.6h-432.5V537.7h424.5v127.2h-288.3
	v119.3h245.6v127.3h-245.6v119.2h296.3V1160.6z M4169.9,1160.6l-155.5-246.5h-26.7v246.5h-136.1V784.2h82.8
	c-11.6-19.5-24.9-37.3-37.4-56.9l-45.4-73V537.7h216.2c0,0,216.2,0,216.2,187.8c0,105-64.1,151.2-122.8,171.7l164,263.4H4169.9z
	 M4147,725.4c0,43.6-33.8,56.1-62.3,57.9l-73-115.7h56.1C4084.7,667.6,4147,667.6,4147,725.4z"/>
</svg>
